<?xml version="1.0" encoding="UTF-8" standalone="no"?>
<svg
   xmlns:dc="http://purl.org/dc/elements/1.1/"
   xmlns:cc="http://creativecommons.org/ns#"
   xmlns:rdf="http://www.w3.org/1999/02/22-rdf-syntax-ns#"
   xmlns:svg="http://www.w3.org/2000/svg"
   xmlns="http://www.w3.org/2000/svg"
   xmlns:sodipodi="http://sodipodi.sourceforge.net/DTD/sodipodi-0.dtd"
   xmlns:inkscape="http://www.inkscape.org/namespaces/inkscape"
   width="297mm"
   height="210mm"
   viewBox="0 0 297 210"
   version="1.1"
   id="svg243"
   inkscape:version="1.0.1 (0767f8302a, 2020-10-17)"
   sodipodi:docname="ad_signum.svg"
   inkscape:export-filename="/home/kike/Descargas/ad_signum.png"
   inkscape:export-xdpi="351"
   inkscape:export-ydpi="351">
  <defs
     id="defs237" />
  <sodipodi:namedview
     id="base"
     pagecolor="#ffffff"
     bordercolor="#666666"
     borderopacity="1.0"
     inkscape:pageopacity="0.0"
     inkscape:pageshadow="2"
     inkscape:zoom="0.81848695"
     inkscape:cx="592.55464"
     inkscape:cy="448.6684"
     inkscape:document-units="mm"
     inkscape:current-layer="layer4"
     inkscape:document-rotation="0"
     showgrid="false"
     inkscape:lockguides="true"
     inkscape:window-width="1854"
     inkscape:window-height="1016"
     inkscape:window-x="66"
     inkscape:window-y="27"
     inkscape:window-maximized="1" />
  <metadata
     id="metadata240">
    <rdf:RDF>
      <cc:Work
         rdf:about="">
        <dc:format>image/svg+xml</dc:format>
        <dc:type
           rdf:resource="http://purl.org/dc/dcmitype/StillImage" />
        <dc:title />
      </cc:Work>
    </rdf:RDF>
  </metadata>
  <g
     inkscape:label="Capa 1"
     inkscape:groupmode="layer"
     id="layer1"
     style="display:inline">
    <g
       aria-label="A"
       id="text247"
       style="font-size:70.5556px;line-height:1.25;font-family:Nunito;-inkscape-font-specification:Nunito;letter-spacing:0px;word-spacing:0px;stroke-width:0.264583"
       transform="translate(-15.345837,-5.2916669)">
      <path
         id="path267"
         style="font-style:normal;font-variant:normal;font-weight:900;font-stretch:normal;font-size:70.5556px;font-family:Nunito;-inkscape-font-specification:'Nunito Heavy';fill:#ff6600;stroke-width:0.264583"
         d="m 63.284599,104.93696 c 0.845029,3.10321 4.200988,5.81295 7.467249,4.49585 2.820657,-0.62155 4.214483,-3.67417 3.70994,-6.35028 -0.491776,-2.7493 -1.839925,-5.251363 -2.745846,-7.879867 -3.812673,-9.805722 -7.55214,-19.643938 -11.41216,-29.428392 -1.428456,-3.380078 -4.310784,-6.49722 -8.182915,-6.702329 -3.723797,-0.530651 -7.669603,1.190853 -9.493263,4.55345 -1.977336,3.295279 -2.970785,7.049813 -4.457879,10.573463 -3.512319,9.134462 -7.093764,18.245531 -10.562882,27.394615 -0.847887,2.68749 -0.381346,6.4207 2.596204,7.53359 2.630311,1.46079 5.980312,0.22811 7.412074,-2.32113 1.341508,-2.653 2.078124,-5.57054 3.138538,-8.345755 h 20.257175 c 0.757922,2.158925 1.515843,4.317855 2.273765,6.476785 z M 61.010834,98.460175 H 40.753659 L 50.882247,69.72806 Z"
         sodipodi:nodetypes="cccccccccccccccccc" />
    </g>
    <text
       xml:space="preserve"
       style="font-size:70.5556px;line-height:1.25;font-family:Nunito;-inkscape-font-specification:Nunito;letter-spacing:0px;word-spacing:0px;stroke-width:0.264583"
       x="57.715706"
       y="103.8148"
       id="text251"><tspan
         sodipodi:role="line"
         id="tspan249"
         x="57.715706"
         y="103.8148"
         style="font-style:normal;font-variant:normal;font-weight:900;font-stretch:normal;font-size:70.5556px;font-family:Nunito;-inkscape-font-specification:'Nunito Heavy';fill:#ff6600;stroke-width:0.264583">D</tspan></text>
  </g>
  <g
     inkscape:groupmode="layer"
     id="layer2"
     inkscape:label="Capa 2"
     style="display:inline" />
  <g
     inkscape:groupmode="layer"
     id="layer3"
     inkscape:label="Capa 3"
     style="display:inline">
    <rect
       style="display:inline;fill:#ff6600;stroke-width:0.257255"
       id="rect356"
       width="268.16702"
       height="4.0627174"
       x="-10.918353"
       y="125.65601"
       ry="2.0313587"
       transform="matrix(0.99680852,-0.07982963,0.18541103,0.98266106,0,0)"
       rx="134.08351" />
  </g>
  <g
     inkscape:groupmode="layer"
     id="layer5"
     inkscape:label="Signum con font">
    <g
       aria-label="Signum"
       id="text98"
       style="font-size:50.8px;line-height:1.25;font-family:'Ananda Black';-inkscape-font-specification:'Ananda Black, ';letter-spacing:0px;word-spacing:0px;fill:#4d4d4d;stroke-width:0.264583"
       transform="translate(38.535025,-57.625779)">
      <path
         d="m 115.1964,128.83155 q -0.9652,0.6096 -2.3876,0.6096 -0.9652,0 -1.8796,-0.3048 -0.8636,-0.3048 -1.524,-0.7112 -0.6096,-0.4572 -0.9652,-0.8636 -0.3556,-0.4064 -0.254,-0.6096 1.1176,-0.508 2.4384,-1.5748 1.3716,-1.0668 2.54,-2.3368 1.1684,-1.3208 1.9304,-2.6416 0.8128,-1.3716 0.8128,-2.54 0,-0.9652 -0.5588,-1.6256 -0.508,-0.6604 -1.8288,-0.8636 -0.4064,-0.1016 -0.8636,-0.1016 -0.4572,0 -0.9144,0 -1.8288,0 -4.0132,0.4064 -2.1844,0.3556 -4.3688,1.1176 -2.1844,0.7112 -4.216395,1.778 -2.032,1.0668 -3.556,2.4892 -1.4732,1.4224 -2.286,3.2004 -0.8128,1.7272 -0.5588,3.81 0.1524,1.4224 0.7112,2.794 0.6096,1.3208 1.4224,2.5908 0.8636,1.27 1.8796,2.4892 1.016,1.1684 2.032,2.2352 1.269995,1.3716 2.489195,2.794 1.2192,1.4224 2.1336,2.9464 0.9144,1.47319 1.4224,3.04799 0.5588,1.5748 0.4064,3.2512 -0.3048,2.6416 -2.2352,5.3848 -1.8796,2.7432 -4.876795,4.9276 -2.9464,2.2352 -6.7056,3.6068 -3.7592,1.3716 -7.874,1.2192 -2.2352,-0.1524 -4.826,-0.8636 -2.54,-0.7112 -4.7752,-2.032 -2.1844,-1.27 -3.7084,-3.1496 -1.524,-1.9304 -1.6256,-4.4704 -0.1016,-2.6416 1.27,-5.1308 1.4224,-2.4892 5.08,-5.02919 h -0.0508 q 0.3048,-0.254 1.3716,0 1.1176,0.20319 2.3368,0.66039 1.2192,0.4572 2.1336,1.016 0.9144,0.5588 0.8128,0.8636 l -1.1684,0.6604 q -1.0668,0.6096 -2.1844,1.27 -1.1176,0.6096 -1.9812,1.4732 -0.8636,0.8636 -1.4224,1.9812 -0.5588,1.0668 -0.5588,2.5908 0,2.1844 0.9144,3.556 0.9144,1.3208 2.3368,2.0828 1.4224,0.762 3.1496,1.016 1.778,0.254 3.5052,0.254 2.9972,0 5.4864,-0.8636 2.4892,-0.8128 4.2672,-2.3368 1.8288,-1.524 2.794,-3.7084 1.016,-2.1844 1.016,-4.8768 0,-1.4732 -0.5588,-2.7432 -0.508,-1.3208 -1.3208,-2.4892 -0.8128,-1.21919 -1.8796,-2.33679 -1.0668,-1.1684 -2.1336,-2.286 -1.2192,-1.27 -2.4384,-2.54 -1.1684,-1.27 -2.032,-2.5908 -0.8636,-1.3208 -1.3208,-2.6924 -0.4572,-1.4224 -0.3048,-2.9464 0.254,-2.3876 1.5748,-4.6228 1.3716,-2.286 3.4544,-4.2164 2.1336,-1.9812 4.826,-3.556 2.7432,-1.5748 5.740395,-2.6416 2.9972,-1.1176 6.096,-1.6256 3.1496,-0.5588 6.096,-0.4064 1.7272,0.1016 2.8956,0.6096 1.2192,0.4572 1.9304,1.27 0.762,0.762 1.0668,1.778 0.3556,1.016 0.3556,2.1336 0,1.3208 -0.4064,2.794 -0.3556,1.4732 -1.016,2.8956 -0.6096,1.3716 -1.4224,2.6416 -0.762,1.2192 -1.5748,2.0828 z"
         style="fill:#4d4d4d;stroke-width:0.264583"
         id="path100" />
      <path
         d="m 116.46006,134.16555 q 0.5588,-0.254 1.4224,0 0.9144,0.254 1.7272,0.8636 0.8128,0.5588 1.3208,1.4224 0.5588,0.8128 0.4064,1.6256 l -1.8288,3.3528 q -0.762,1.3208 -1.6764,2.9464 -0.9144,1.62559 -1.778,3.30199 -0.8636,1.6256 -1.6256,3.2004 -0.762,1.5748 -1.2192,2.8448 -0.4064,1.2192 -0.4572,1.9812 0,0.762 0.6096,0.762 h 0.4064 q 1.4224,-0.508 2.794,-1.5748 1.4224,-1.1176 2.6924,-2.54 1.3208,-1.4224 2.4892,-2.9464 1.2192,-1.5748 2.2352,-2.9972 l 0.762,-1.0668 q 0.2032,-0.254 0.6604,-0.254 0.4572,-0.0508 0.8128,0.1016 0.4064,0.1016 0.6096,0.4064 0.2032,0.254 -0.1016,0.6096 h 0.0508 q -2.032,3.1496 -4.3688,5.9944 -2.3368,2.8448 -5.4864,5.334 -0.4064,0.3048 -1.016,0.7112 -0.6096,0.4064 -1.3716,0.762 -0.762,0.3048 -1.6764,0.5588 -0.8636,0.2032 -1.778,0.2032 -1.8288,-0.0508 -2.6924,-1.1176 -0.8636,-1.1176 -0.8636,-2.6924 0,-1.27 0.508,-2.8448 h -0.0508 q 0.254,-0.9652 0.762,-2.2352 0.508,-1.3208 1.1176,-2.794 0.6604,-1.4732 1.3716,-3.048 0.762,-1.57479 1.524,-3.14959 1.016,-2.1844 1.9304,-4.1656 0.9144,-1.9812 1.4732,-3.556 z m 4.7752,4.2672 0.1016,-0.3556 q 0.4064,-0.7112 0.4064,-0.762 0.0508,-0.1016 -0.508,1.1176 z m 0.254,-18.288 q 0.5588,-0.1016 1.4224,0.4572 0.9144,0.5588 1.7272,1.3716 0.8636,0.762 1.4224,1.5748 0.6096,0.762 0.6096,1.0668 -0.2032,0.8128 -0.762,1.8796 -0.508,1.0668 -1.0668,2.1336 -0.508,1.016 -0.9652,2.032 -0.4572,0.9652 -0.8128,2.1844 -0.5588,-0.1016 -1.27,-0.508 -0.6604,-0.4572 -1.27,-1.016 -0.5588,-0.5588 -0.9652,-1.1176 -0.4064,-0.5588 -0.4064,-0.9144 0.0508,-0.8636 0.254,-1.8796 0.254,-1.0668 0.5588,-2.2352 0.3556,-1.27 0.6096,-2.54 0.3048,-1.3208 0.4064,-2.4892 z"
         style="fill:#4d4d4d;stroke-width:0.264583"
         id="path102" />
      <path
         d="m 135.54419,166.22034 q 0.6604,0.3048 1.2192,0.6096 0.6096,0.3556 1.2192,0.7112 1.6764,0.9652 3.556,1.8796 1.8796,0.9652 3.9116,1.6764 0.254,0.1016 -0.0508,0.6096 -0.3048,0.508 -0.9652,1.0668 -0.6096,0.5588 -1.524,1.016 -0.8636,0.4572 -1.8288,0.4572 -1.2192,0 -1.9812,-0.4572 l -3.1496,-1.9812 h 0.0508 l -2.9464,-1.8288 q -1.4732,1.9812 -3.048,3.6576 -1.5748,1.7272 -3.4544,2.9464 -1.8796,1.27 -4.1148,1.9812 -2.2352,0.7112 -5.0292,0.762 -1.5748,0 -3.1496,-0.254 -1.5748,-0.254 -2.8448,-0.9652 -1.27,-0.6604 -2.0828,-1.8288 -0.8636,-1.1684 -0.9652,-2.9464 -0.1016,-2.2352 1.016,-4.1656 1.1176,-1.8796 3.0988,-3.302 1.9304,-1.3716 4.4704,-2.1844 2.54,-0.762 5.2324,-0.762 1.524,0 2.6924,0.1016 1.2192,0.1016 2.2352,0.254 1.0668,0.2032 1.9812,0.4572 0.9144,0.254 1.8796,0.5588 l 2.1844,-4.6736 1.2192,-2.794 q -1.4732,1.1684 -2.9972,1.9304 -1.4732,0.762 -2.9972,0.762 -1.8288,-0.1524 -3.0988,-0.8636 -1.2192,-0.7112 -1.9304,-1.6256 -0.7112,-0.9652 -1.016,-2.032 -0.3048,-1.1176 -0.3048,-2.1336 0,-0.4064 0.0508,-0.8128 0,-0.4064 0.0508,-0.7112 0.2032,-1.6256 0.9652,-3.556 0.8128,-1.9304 1.9812,-3.86079 1.2192,-1.9304 2.794,-3.7084 1.6256,-1.8288 3.5052,-3.2004 1.8796,-1.4224 3.9116,-2.2352 2.0828,-0.8636 4.2672,-0.8636 1.3716,0 2.5908,0.3048 1.1176,0.3048 1.8288,1.016 0.762,0.7112 1.1684,1.6764 0.4064,0.9144 0.508,1.9812 0.1524,1.0668 0.1016,2.1336 0,0.3556 -0.4572,0.5588 -0.4064,0.2032 -0.9144,0.254 -0.508,0 -0.9144,-0.2032 -0.4064,-0.2032 -0.4064,-0.6096 0,-0.2032 -0.0508,-0.3556 -0.0508,-0.2032 -0.0508,-0.4064 -0.0508,-0.5588 -0.1524,-1.2192 -0.1016,-0.7112 -0.3556,-1.27 -0.254,-0.6096 -0.762,-1.016 -0.4572,-0.4064 -1.2192,-0.4572 -1.3208,-0.0508 -2.5908,0.6096 -1.2192,0.6096 -2.3876,1.6764 -1.1684,1.0668 -2.1844,2.4384 -1.016,1.3716 -1.8796,2.8956 -0.8128,1.47319 -1.4224,2.99719 -0.6096,1.4732 -0.9652,2.7432 -0.1524,0.6096 -0.3048,1.4224 -0.1524,0.8128 -0.1524,1.6256 0,0.7112 0.1016,1.3716 0.1524,0.6096 0.508,1.0668 0.3556,0.4572 0.9144,0.6604 0.5588,0.1524 1.4732,-0.0508 0.6096,-0.1524 1.4732,-0.8636 0.8636,-0.7112 1.778,-1.6764 0.9652,-1.016 1.8796,-2.1844 0.9652,-1.1684 1.7272,-2.2352 0.4064,-0.8636 0.8128,-1.778 0.4064,-0.9144 0.762,-1.778 0.3556,-0.91439 0.5588,-1.72719 0.254,-0.8128 0.3048,-1.4732 0.6096,-0.3048 1.7272,0 1.1684,0.3048 2.2352,0.9144 1.0668,0.6096 1.778,1.4732 0.7112,0.81279 0.4064,1.62559 z m -15.5448,11.0236 q 2.7432,-1.2192 4.9276,-3.7592 2.2352,-2.54 4.1148,-5.6896 -1.6256,-0.7112 -3.2512,-1.1176 -1.6256,-0.3556 -3.556,-0.4064 -1.778,-0.0508 -3.7084,0.3556 -1.9812,0.4064 -3.6068,1.27 -1.6256,0.8636 -2.6924,2.1844 -1.0668,1.3208 -1.016,3.0988 0.0508,1.27 0.5588,2.1336 0.4572,0.9144 1.2192,1.4732 0.762,0.5588 1.7272,0.8128 0.9652,0.254 1.9812,0.254 0.8128,0 1.6764,-0.2032 0.8636,-0.1524 1.6256,-0.4064 z"
         style="fill:#4d4d4d;stroke-width:0.264583"
         id="path104" />
      <path
         d="m 175.68095,150.06594 q -0.7112,1.1176 -1.9304,2.794 -1.2192,1.6256 -2.7432,3.1496 -1.524,1.524 -3.2512,2.6416 -1.6764,1.0668 -3.4036,1.0668 -1.016,0 -1.9304,-0.3048 -0.9144,-0.3048 -1.6256,-0.9144 -0.7112,-0.6096 -1.1176,-1.5748 -0.4064,-0.9652 -0.3556,-2.286 0.0508,-1.27 0.3556,-2.54 0.3048,-1.27 0.8128,-2.6924 0.508,-1.4732 1.1684,-3.2004 0.7112,-1.72719 1.6256,-3.86079 0.4064,-1.016 0.6604,-1.8796 0.3048,-0.9144 0.3048,-1.6256 0,-0.508 -0.6604,-0.3048 -0.6096,0.1524 -2.0828,1.4732 -1.778,1.5748 -3.2512,3.2004 -1.4732,1.57479 -3.048,3.50519 -1.3208,2.9972 -2.2352,6.1468 -0.9144,3.1496 -1.1684,6.5024 -0.0508,0.4572 -0.8128,0.3556 -0.762,-0.1016 -1.6256,-0.4572 -0.8636,-0.4064 -1.6256,-0.9652 -0.762,-0.5588 -0.8128,-1.0668 0.2032,-3.81 1.4224,-7.5184 1.27,-3.7592 2.6924,-7.56919 0.7112,-1.778 1.3716,-3.6576 0.7112,-1.8796 1.3208,-4.1148 0.6096,-0.3048 1.6764,0 1.0668,0.254 2.032,0.8636 0.9652,0.6096 1.5748,1.4732 0.6096,0.8636 0.3048,1.7272 h 0.0508 q 0,0.1016 -0.0508,0.1524 1.8796,-1.778 4.0132,-2.9972 2.1336,-1.27 4.4704,-1.4224 0.6096,0 1.3208,0.4572 0.7112,0.4064 1.27,1.0668 0.6096,0.6096 0.9144,1.3208 0.3556,0.7112 0.2032,1.27 -0.8636,2.3368 -1.778,4.4196 -0.8636,2.03199 -1.524,3.50519 -0.5588,1.3208 -1.0668,2.4384 -0.4572,1.1176 -0.8636,2.2352 -0.3556,1.0668 -0.6096,2.2352 -0.2032,1.1684 -0.3048,2.5908 -0.0508,0.254 0.1016,0.508 0.2032,0.254 0.762,0.1016 1.3208,-0.6604 3.302,-2.3876 1.9812,-1.778 4.0132,-4.826 0.9652,-1.4224 1.8288,-2.8956 l 0.8128,-1.4224 q 0.1524,-0.25399 0.5588,-0.25399 0.4572,-0.0508 0.8636,0.1016 0.4064,0.15239 0.6604,0.40639 0.254,0.254 0.0508,0.6096 z"
         style="fill:#4d4d4d;stroke-width:0.264583"
         id="path106" />
      <path
         d="m 193.64986,134.16555 q 0.6096,-0.3048 1.5748,0.0508 1.016,0.3048 1.9304,0.9652 0.9144,0.6096 1.4732,1.524 0.5588,0.8636 0.254,1.7272 -0.1524,0.4064 -0.508,1.1176 -0.3048,0.7112 -0.762,1.6764 -0.7112,1.524 -1.5748,3.50519 -0.8636,1.9304 -1.6256,3.8608 -0.762,1.9304 -1.3208,3.6576 -0.508,1.7272 -0.508,2.8448 0,1.3716 0.3048,1.3716 h 0.4572 q 1.3716,-0.4572 2.6416,-1.5748 1.3208,-1.1684 2.4892,-2.5908 1.2192,-1.4732 2.2352,-3.0988 1.0668,-1.6256 1.9304,-3.0988 l 0.762,-1.3208 q 0.254,-0.40639 0.762,-0.50799 0.508,-0.1016 0.9144,0.0508 0.4572,0.1016 0.6604,0.45719 0.2032,0.3556 -0.1016,0.8636 l -1.2192,1.9304 q -1.5748,2.54 -3.4544,5.1816 -1.8288,2.6416 -4.2672,4.7752 -0.3556,0.3048 -0.9144,0.7112 -0.5588,0.4064 -1.3208,0.762 -0.7112,0.3048 -1.6256,0.5588 -0.9144,0.2032 -1.9304,0.2032 -2.032,-0.1016 -3.048,-1.4224 -0.9652,-1.3208 -0.9652,-3.2512 0,-0.8636 0.1524,-1.7272 -0.9144,1.1684 -1.8796,2.2352 -0.9652,1.0668 -2.032,1.9304 -0.3556,0.3048 -0.9144,0.7112 -0.5588,0.4064 -1.3208,0.762 -0.7112,0.3048 -1.6256,0.5588 -0.9144,0.2032 -1.9304,0.2032 -1.9812,-0.1016 -2.9972,-1.3716 -0.9652,-1.3208 -0.9652,-3.2512 0,-1.0668 0.2032,-2.032 0.2032,-0.9144 0.5588,-2.1336 0.3556,-1.27 0.8128,-2.6924 0.508,-1.4224 1.016,-2.9464 0.5588,-1.52399 1.1176,-2.99719 0.762,-2.1336 1.4732,-4.1656 0.7112,-2.0828 1.2192,-4.0132 h 0.3556 q 0.6096,-0.3048 1.5748,0.0508 1.016,0.3048 1.8796,0.9652 0.9144,0.6096 1.4732,1.524 0.5588,0.8636 0.254,1.7272 l -1.3716,3.048 q -0.7112,1.524 -1.5748,3.45439 -0.8128,1.8796 -1.5748,3.81 -0.7112,1.8796 -1.2192,3.6068 -0.508,1.6764 -0.508,2.7432 0,1.3716 0.3048,1.3716 h 0.4064 q 1.3716,-0.508 2.6416,-1.5748 1.27,-1.1176 2.3876,-2.4892 1.1684,-1.4224 2.1844,-2.9972 1.0668,-1.5748 1.9304,-3.048 h -0.0508 q 0.1016,-0.254 0.254,-0.4572 0.2032,-0.2032 0.3556,-0.4572 0.254,-0.7112 0.508,-1.42239 0.254,-0.7112 0.508,-1.4224 0.8128,-2.1844 1.524,-4.318 0.762,-2.1844 1.27,-4.1148 z"
         style="fill:#4d4d4d;stroke-width:0.264583"
         id="path108" />
      <path
         d="m 241.20422,150.06594 q -0.7112,1.1176 -1.9304,2.794 -1.2192,1.6256 -2.7432,3.1496 -1.4732,1.524 -3.2004,2.6416 -1.7272,1.0668 -3.4544,1.0668 -1.016,0 -1.9304,-0.3048 -0.9144,-0.3048 -1.6256,-0.9144 -0.7112,-0.6096 -1.1176,-1.5748 -0.4064,-0.9652 -0.3556,-2.286 0.0508,-1.27 0.3556,-2.54 0.3048,-1.27 0.8128,-2.6924 0.508,-1.4732 1.1684,-3.2004 0.7112,-1.72719 1.6256,-3.86079 0.4064,-1.016 0.7112,-1.9304 0.3048,-0.9144 0.3048,-1.6256 0,-0.508 -0.6604,-0.254 -0.6096,0.254 -2.0828,1.4732 -1.778,1.6256 -3.302,3.2004 -1.524,1.57479 -2.9972,3.50519 -0.8128,1.7272 -1.524,3.7592 -0.6604,2.032 -1.1684,4.318 -0.508,2.2352 -0.6604,4.572 0,0.508 -0.762,0.4064 -0.762,-0.1016 -1.6764,-0.4572 -0.8636,-0.4064 -1.6256,-0.9652 -0.762,-0.6096 -0.8128,-1.1176 0.1524,-3.556 1.27,-7.112 1.1684,-3.6068 2.6416,-7.36599 0.762,-1.9304 1.1176,-3.2004 0.3556,-1.27 0.1016,-1.524 -0.6096,0.1016 -2.8956,1.9812 -1.778,1.5748 -3.2512,3.2004 -1.4732,1.57479 -3.048,3.50519 -1.3208,2.9972 -2.2352,6.1468 -0.9144,3.1496 -1.1684,6.5024 -0.0508,0.4572 -0.8128,0.3556 -0.762,-0.1016 -1.6256,-0.4572 -0.8636,-0.4064 -1.6256,-0.9652 -0.762,-0.5588 -0.8128,-1.0668 0.2032,-3.81 1.4224,-7.5184 1.27,-3.7592 2.6924,-7.56919 0.7112,-1.778 1.3716,-3.6576 0.7112,-1.8796 1.3208,-4.1148 0.6096,-0.3048 1.6764,0 1.0668,0.254 2.032,0.8636 0.9652,0.6096 1.5748,1.4732 0.6096,0.8636 0.3048,1.7272 h 0.0508 q 0,0.1016 -0.0508,0.1524 1.8796,-1.778 4.0132,-2.9972 2.1336,-1.27 4.4704,-1.4224 0.6096,0 1.3208,0.4572 0.762,0.4064 1.3716,1.0668 0.6096,0.6096 0.9144,1.3208 0.3048,0.7112 0.1016,1.27 -0.1016,0.1524 -0.1524,0.3048 0,0.1524 -0.1016,0.254 1.9304,-1.8288 4.1656,-3.1496 2.2352,-1.3716 4.6736,-1.524 0.5588,0 1.27,0.4572 0.7112,0.4064 1.27,1.0668 0.6096,0.6096 0.9144,1.3208 0.3556,0.7112 0.1524,1.27 -0.8636,2.4384 -1.7272,4.4704 -0.8636,2.03199 -1.524,3.50519 -0.6096,1.27 -1.0668,2.3876 -0.4572,1.1176 -0.8128,2.2352 -0.3556,1.1176 -0.6096,2.286 -0.254,1.1684 -0.3556,2.54 -0.0508,0.254 0.1016,0.5588 0.1524,0.3048 0.7112,0.0508 1.4224,-0.6604 3.3528,-2.3876 1.9304,-1.778 4.0132,-4.826 0.4572,-0.6604 0.9652,-1.524 0.508,-0.9144 1.0668,-1.9304 l 0.5588,-0.8636 q 0.3048,-0.40639 0.8128,-0.50799 0.508,-0.1016 0.9144,0.0508 0.4572,0.1016 0.6096,0.45719 0.2032,0.3556 -0.1016,0.8636 -0.6604,1.1176 -1.3716,2.2352 -0.6604,1.0668 -1.3208,2.1844 z"
         style="fill:#4d4d4d;stroke-width:0.264583"
         id="path110" />
    </g>
  </g>
  <g
     inkscape:groupmode="layer"
     id="layer4"
     inkscape:label="Capa 4"
     style="display:inline">
    <rect
       style="fill:#ff6600;stroke-width:0.31357"
       id="rect382"
       width="9.325738"
       height="3.9468822"
       x="131.42499"
       y="124.32191"
       ry="0.74509907"
       transform="matrix(0.99720874,-0.07466417,0.1039465,0.99458289,0,0)"
       rx="0.89148045" />
  </g>
</svg>
